# xmcd CD database file
#
# Track frame offsets:
#	150
#	19697
#	43639
#	56807
#	73752
#	89597
#	106547
#	128562
#	144407
#	165540
#	188410
#	205672
#	223462
#	244677
#	262447
#	280990
#	295627
#
# Disc length: 4104 seconds
#
# Revision: 0
# Processed by: cddbd v1.5.2PL0 Copyright (c) Steve Scherf et al.
# Submitted via: CDex 1.70beta2
#
DISCID=00100611
DTITLE=Varios - Para Todos Los Gustos Vol 2
DYEAR=1900
DGENRE=Salsa
TTITLE0=Me Sabe A Peru
TTITLE1=La Paranda Se Canta
TTITLE2=Fiesta
TTITLE3=Se Murio Mi Canario
TTITLE4=Porque Te Vas
TTITLE5=Feliz Cumpleaños
TTITLE6=Dime
TTITLE7=Sufre Sufre
TTITLE8=Quien Ha Visto Por Aqui Mi Sombrero De Yarey
TTITLE9=Mi Valle Del Cauca
TTITLE10=No Quiero Perderte
TTITLE11=Veinte Años
TTITLE12=Tu Ausencia
TTITLE13=Me Pongo Celoso
TTITLE14=La Sintetica
TTITLE15=Pa'l 23
TTITLE16=Pica Mosquito
EXTD=
EXTT0=
EXTT1=
EXTT2=
EXTT3=
EXTT4=
EXTT5=
EXTT6=
EXTT7=
EXTT8=
EXTT9=
EXTT10=
EXTT11=
EXTT12=
EXTT13=
EXTT14=
EXTT15=
EXTT16=
PLAYORDER=
